<svg width="50" height="46" viewBox="0 0 50 46" fill="none" xmlns="http://www.w3.org/2000/svg">
<path d="M50 34.2501H49.95H50ZM20 13.0001L11.875 21.1251C12.65 21.4251 13.275 21.8001 13.8 22.1001C14.725 22.6751 15.275 23.0001 16.675 23.0001C18.075 23.0001 18.625 22.6751 19.55 22.1001C20.7 21.4251 22.25 20.5001 25.025 20.5001C27.8 20.5001 29.35 21.4251 30.475 22.1001C31.4 22.6501 31.975 23.0001 33.35 23.0001C34.725 23.0001 35.3 22.6751 36.225 22.1001C36.525 21.9251 36.875 21.7251 37.25 21.5251L21.2 5.50006C17.325 1.62506 13.75 0.475061 7.5 0.500061V6.75006C12.05 6.72506 14.725 7.72506 17.5 10.5001L20 13.0001ZM8.375 31.7501C9.75 31.7501 10.325 32.1001 11.25 32.6501C12.375 33.3251 13.925 34.2501 16.7 34.2501C19.475 34.2501 21.025 33.3251 22.15 32.6501C23.075 32.0751 23.625 31.7501 25.025 31.7501C26.4 31.7501 26.975 32.1001 27.9 32.6501C29.025 33.3251 30.575 34.2501 33.35 34.2501C36.125 34.2501 37.675 33.3251 38.8 32.6501C39.725 32.0751 40.275 31.7501 41.675 31.7501C43.05 31.7501 43.625 32.1001 44.55 32.6501C45.675 33.3251 47.2 34.2251 49.95 34.2501V29.2501C48.575 29.2501 48 28.9001 47.075 28.3501C45.95 27.6751 44.4 26.7501 41.625 26.7501C38.85 26.7501 37.3 27.6751 36.175 28.3501C35.25 28.9251 34.675 29.2501 33.3 29.2501C31.925 29.2501 31.35 28.9001 30.425 28.3501C29.3 27.6751 27.75 26.7501 24.975 26.7501C22.2 26.7501 20.65 27.6751 19.525 28.3501C18.6 28.9251 18.05 29.2501 16.65 29.2501C15.275 29.2501 14.7 28.9001 13.775 28.3501C12.65 27.6751 11.1 26.7501 8.325 26.7501C5.55 26.7501 4 27.6751 2.875 28.3501C1.95 28.9251 1.4 29.2501 0 29.2501V34.2501C2.775 34.2501 4.325 33.3251 5.5 32.6501C6.425 32.0751 7 31.7501 8.375 31.7501ZM41.675 38.0001C38.9 38.0001 37.35 38.9251 36.225 39.6001C35.3 40.1751 34.725 40.5001 33.35 40.5001C31.975 40.5001 31.4 40.1501 30.475 39.6001C29.35 38.9251 27.8 38.0001 25.025 38.0001C22.25 38.0001 20.7 38.9251 19.55 39.6001C18.625 40.1751 18.075 40.5001 16.675 40.5001C15.275 40.5001 14.725 40.1751 13.8 39.6001C12.675 38.9251 11.125 38.0001 8.35 38.0001C5.575 38.0001 4.025 38.9251 2.875 39.6001C1.95 40.1751 1.4 40.5001 0 40.5001V45.5001C2.775 45.5001 4.325 44.5751 5.475 43.9001C6.4 43.3251 6.975 43.0001 8.35 43.0001C9.725 43.0001 10.3 43.3251 11.225 43.9001C12.35 44.5751 13.9 45.5001 16.675 45.5001C19.45 45.5001 21 44.5751 22.15 43.9001C23.075 43.3251 23.625 43.0001 25.025 43.0001C26.4 43.0001 26.975 43.3501 27.9 43.9001C29.025 44.5751 30.575 45.5001 33.35 45.5001C36.125 45.5001 37.65 44.5751 38.8 43.9001C39.725 43.3251 40.275 43.0001 41.675 43.0001C43.05 43.0001 43.625 43.3501 44.55 43.9001C45.675 44.5751 47.225 45.5001 50 45.5001V40.5001C48.6 40.5001 48.05 40.1751 47.125 39.6001C46 38.9251 44.45 38.0001 41.675 38.0001Z" fill="#DFAA5B"/>
</svg>
